<?xml version="1.0" encoding="utf-8"?>
<!-- Generator: Adobe Illustrator 24.0.2, SVG Export Plug-In . SVG Version: 6.00 Build 0)  -->
<svg version="1.1" id="Capa_1" xmlns="http://www.w3.org/2000/svg" xmlns:xlink="http://www.w3.org/1999/xlink" x="0px" y="0px"
	 viewBox="0 0 1024 1010.9" style="enable-background:new 0 0 1024 1010.9;" xml:space="preserve">
<style type="text/css">
	.st0{fill-rule:evenodd;clip-rule:evenodd;fill:#219786;}
	.st1{fill-rule:evenodd;clip-rule:evenodd;}
</style>
<title>FunctionlandLogo</title>
<path class="st0" d="M0,804.6L0,804.6v182.5l0,0l0.2,5.8l0,0l1.2,4.3l0,0h0l0,0h0l0,0h0l0,0h0.1l0.1,0.1l0,0l0.5,0.3l1,0.7l0,0
	l1.4,0.9l1.4,0.9l0,0l1,0.7l0.5,0.3l0,0l0.1,0.1l0.1,0l0,0h0.1l0,0l0,0l0,0l0,0l0,0l3,1.8l0,0l4,0.3h33h45.8l0,0h101.3h129.4l0,0
	h120.7l0,0h86.7h63.9l2-0.3l0,0l2.8-1.8l0,0l4-4.3l0,0l4.7-5.8l0,0l5.9-7.6l0,0l13.5-16.7l0,0l26-31.6l0,0l32.7-39.6l0,0l31.4-37.9
	l0,0l23.5-28.3l0,0l11.7-14.3l0,0l4.7-6.3l0,0l3.2-5.3l0,0l0.5-4.2l0,0l0,0l0,0h0l0,0H762l0,0l-0.1-0.1l0,0l-0.1-0.1l-0.5-0.3
	l-1-0.7l0,0l-1.4-0.9l-1.4-0.9l0,0l-1-0.7l-0.5-0.3l-0.1-0.1l0,0H756l0,0l0,0h0l0,0l0,0l0,0l-4.1-1.8l0,0l-6.9-0.3H596.4H478.6l0,0
	H330.9H190H87.1l0,0H41.3h-33l-4,0.3l0,0l-2.9,1.8l0,0l-1.2,4.2l0,0L0,804.6z"/>
<path class="st0" d="M3.2,212L3.2,212v5l0,0v10l0,0v43.2l0,0V451l0,0v265.7l0,0v12l0,0v9l0,0l0.3,4l0,0l2,2.9l0,0l0,0l0,0l0,0l0,0
	h0.1l0.1,0.1l0,0l0.1,0.1l0.5,0.3l1,0.7l0,0l1.4,0.9l0,0l1.4,0.9l1,0.7l0,0l0.5,0.3l0.1,0.1l0,0h0.1h0.1l0,0l0,0h0.1l0,0l4.8,1.2
	l0,0l6.5,0.2h106.4h42.1h54.6l5.9-0.2l0,0l4.7-1.2l0,0l2-3l0,0l0.3-4l0,0v-21l0,0V14.7l0,0l-0.3-6.8l0,0l-2-3.6l0,0l0,0h-0.1h-0.1
	l0,0h-0.1l-0.1-0.1l-0.5-0.3l-1-0.7l0,0l-1.4-0.9l-1.4-0.9l0,0l-1-0.7l-0.5-0.3l0,0l-0.1-0.1l-0.1-0.1l0,0h-0.1l0,0l0,0l0,0l0,0l0,0
	l-4.8,1.4l0,0l-5.9,4.5l0,0l-7.1,5.8l0,0l-16,14l0,0l-31.6,28.6l0,0l-42.1,38.6l0,0l-44.1,41l0,0l-35.2,33.2l0,0l-18.5,18.1l0,0
	l-8.4,8.7l0,0l-6.5,6.9l0,0l-4.8,5.5l0,0l-2,3.4l0,0L3.2,212z"/>
<path class="st1" d="M23.1,750.2"/>
<path class="st0" d="M261.9,212.4L261.9,212.4L261.9,212.4L261.9,212.4h0.1l0,0h0l0.1,0.1l0.5,0.3l0,0l1,0.7l1.4,0.9l0,0l1.4,0.9
	l0,0l1,0.7l0.5,0.3l0.1,0.1l0,0h0.1l0.1,0.1l0,0l0,0l0,0l0,0l0,0l4.1,1.8l0,0l6.9,0.3h148.5h117.8l0,0h147.7l0,0H834h102.9l0,0h45.8
	h33l4-0.3l0,0l2.9-1.8l0,0l1.2-4.2l0,0l0.2-5.3l0,0V32l0,0v-7.6l0,0l-0.2-5.8l0,0l-1.2-4.3l0,0l0,0l0,0h0l0,0h-0.1l0,0l-0.1-0.1
	l-0.1-0.1l-0.5-0.3l0,0l-1-0.7l0,0l-1.4-0.9l-1.4-0.9l0,0l-1-0.7l-0.5-0.3l0,0l-0.1-0.1l0,0l0,0h-0.1l0,0l0,0l0,0l0,0l0,0l-3-1.8
	l0,0l-4-0.3h-33h-45.8l0,0H829.4l0,0H700H579.3l0,0h-86.7h-64.1l-2,0.3l0,0l-2.8,1.8l0,0l-4,4.3l0,0l-4.7,5.7l0,0l-5.9,7.6l0,0
	l-13.5,16.7l0,0l-26,31.6l0,0l-32.7,39.6l0,0l-31.4,37.9l0,0L282,182.2l0,0l-11.7,14.3l0,0l-4.7,6.4l0,0l-3.2,5.3l0,0L261.9,212.4z"
	/>
<path class="st0" d="M351.9,359.7L351.9,359.7v293.7l0,0l0.5,3.2l0,0l1.5,2.9l0,0l2.3,2.3l0,0l6.1,4.1l0,0l2.9,1.5l0,0l3.2,0.5l0,0
	l293.6-0.1l0,0l3.2-0.5l0,0l2.9-1.5l0,0l2.3-2.3l0,0l1.5-2.9l0,0l0.5-3.2l0,0V363.7l0,0l-0.5-3.2l0,0l-1.5-2.9l0,0l-2.3-2.3l0,0
	l-6.2-4.1l0,0l-2.9-1.5l0,0l-3.2-0.5l0,0l-293.6,0.1l0,0l-3.2,0.5l0,0l-2.9,1.5l0,0l-2.3,2.3l0,0l-1.5,2.9l0,0L351.9,359.7
	L351.9,359.7z"/>
<path class="st0" d="M783.9,283.8v17.8l0,0v694.6l0,0l0.3,6.8l0,0l2,3.6l0,0l0,0l0,0h0l0,0h0.1l0.1,0l0.1,0.1l0,0l0.5,0.3l0.7,0.4
	l0.4,0.3l1.4,0.9l0,0l1.4,0.9l1,0.7l0,0l0.5,0.3l0.1,0.1h0.1l0,0l0,0h0l0,0l0,0l0,0l4.7-1.7l0,0l5.9-4.5l0,0l7.1-5.8l0,0l16-14l0,0
	l31.6-28.6l0,0l42.1-38.7l0,0l44.1-41l0,0l35.2-33.2l0,0l18.5-18l0,0l8.4-8.7l0,0l4.8-5.1l1.7-1.8l0,0l4.6-5.3l0,0l0.1-0.2l0,0
	l2-3.4l0,0l0.3-2.1l0,0v-5l0,0v-4.5l0,0v-48.4l0,0V305.8l0,0v-28.3l0,0v-4.3l0,0l-0.3-4l0,0l-2-2.9l0,0h0l0,0l0,0l0,0l0,0h-0.1
	l-0.1-0.1l0,0l-0.5-0.3l-1-0.7l0,0l-1.4-0.9l-1.4-0.9l0,0l-1-0.7l-0.5-0.3l0,0l-0.1-0.1h-0.1l0,0l-0.1,0l0,0l0,0l0,0l0,0l-4.8-1.2
	l0,0l-6.5-0.2H893.5h-42.1h-54.6l-5.9,0.2l0,0l-4.7,1.2l0,0l-2,3l0,0l-0.3,4l0,0v4.3l0,0V284L783.9,283.8z"/>
<path class="st1" d="M999.7,260.7"/>
</svg>
