<?xml version="1.0" encoding="utf-8"?>
<!-- Generator: Adobe Illustrator 24.3.0, SVG Export Plug-In . SVG Version: 6.00 Build 0)  -->
<svg version="1.1" id="Layer_1" xmlns="http://www.w3.org/2000/svg" xmlns:xlink="http://www.w3.org/1999/xlink" x="0px" y="0px"
	 viewBox="0 0 1024 1024" style="enable-background:new 0 0 1024 1024;" xml:space="preserve">
<style type="text/css">
	.st0{fill:url(#SVGID_1_);}
	.st1{fill:url(#SVGID_2_);}
	.st2{fill:url(#SVGID_3_);}
	.st3{fill:url(#SVGID_4_);}
	.st4{fill:url(#SVGID_5_);}
</style>
<g>
	<linearGradient id="SVGID_1_" gradientUnits="userSpaceOnUse" x1="1007.3818" y1="1091.1055" x2="649.8068" y2="498.8718">
		<stop  offset="0" style="stop-color:#F30B54"/>
		<stop  offset="1" style="stop-color:#A1115B"/>
	</linearGradient>
	<path class="st0" d="M931.29,211.7c-0.18-0.28-419.33,211.82-419.33,211.82V1024c57.14,0,103.51-46.32,103.51-103.47l0.06-226.33
		c0.65-16.58,14.21-29.84,30.92-29.94c16.66,0.11,30.18,13.37,30.83,29.94l0.06,54.62c0,17.53,14.58,45.63,46.74,45.63
		c28.17,0,46.84-23.86,46.84-46.44c0-9.38,7.5-16.98,16.83-17.21c9.3,0.23,16.78,7.83,16.78,17.21v102.14
		c0,38.29,31.92,64.53,64.38,64.53c37.21,0,64.52-30.76,64.52-64.66c0,0,0.64-626.79,0.64-628.72
		C934.09,219.07,933.5,214.88,931.29,211.7z"/>
	<linearGradient id="SVGID_2_" gradientUnits="userSpaceOnUse" x1="303.5688" y1="-161.0297" x2="668.834" y2="568.1428">
		<stop  offset="0" style="stop-color:#F30B54"/>
		<stop  offset="1" style="stop-color:#A1115B"/>
	</linearGradient>
	<path class="st1" d="M808.96,148.25C808.96,148.24,808.96,148.24,808.96,148.25c-0.06-0.18-0.06-0.37-0.14-0.53
		c-0.3-0.59-0.75-1.12-1.43-1.46L523.67,2.84c-7.49-3.79-16.34-3.79-23.84,0L131.28,189.28c-0.35,0.18-0.57,0.46-0.79,0.74
		c-0.44,0.55-0.62,1.21-0.54,1.88c0.1,0.8,0.5,1.56,1.33,1.98l19.38,9.8c6.05,3.06,13.32,5.08,20.99,6.29
		c12.78,2.02,26.69,1.47,38.79-1.64c4.69-1.21,9.17-2.68,13.07-4.65l276-139.66c3.93-1.99,8.22-2.94,12.5-2.9
		c7.99,0.08,15.96,3.63,21.5,10.86c10.72,13.99,4.83,33.23-10.9,41.18L379,185.73c-19.94,10.08-19.94,38.56,0.01,48.63l0,0
		c7.7,3.89,16.78,3.89,24.48,0l203.95-103.09c15.6-7.88,34.01-7.88,49.61,0l41.47,20.96c26.62,13.45,56.96,16.4,85.25,8.93
		c8.09-2.14,16.02-5.08,23.63-8.93C808.98,151.43,809.43,149.72,808.96,148.25z"/>
	<linearGradient id="SVGID_3_" gradientUnits="userSpaceOnUse" x1="-2277.1782" y1="-5447.915" x2="1006.5339" y2="1107.3019">
		<stop  offset="0" style="stop-color:#F30B54"/>
		<stop  offset="1" style="stop-color:#A1115B"/>
	</linearGradient>
	<path class="st2" d="M915.5,201.05c-1.5-0.66-3.05-1.28-4.64-1.86c-0.39-0.14-0.77-0.29-1.16-0.43
		c-7.43-2.57-15.69-4.27-24.25-5.07c-11.23-1.05-22.9-0.55-33.71,1.45c-8.37,1.55-16.22,3.98-22.91,7.37l-304.27,153.8
		c-3.94,1.99-8.24,2.95-12.54,2.91c-4.12-0.04-8.24-1-12.02-2.91l-0.09-0.05c-19.92-10.07-19.92-38.52,0-48.59l144.85-73.22
		c19.92-10.07,19.92-38.52,0-48.59c-7.72-3.9-16.84-3.9-24.56,0L416.22,288.94c-15.56,7.87-33.94,7.87-49.5,0l-41.52-20.99
		c-26.99-13.64-57.83-16.48-86.45-8.6c-7.67,2.11-12.34,3.55-19.57,7.21c-0.51,0.26-4.05,2.02-4.05,6.26
		c0,0.24,296.84,150.71,296.84,150.71L931.29,211.7C927.38,205.08,916.57,201.53,915.5,201.05z"/>
	<linearGradient id="SVGID_4_" gradientUnits="userSpaceOnUse" x1="701.6829" y1="484.4402" x2="122.7561" y2="701.905">
		<stop  offset="0" style="stop-color:#A1115B"/>
		<stop  offset="0.8461" style="stop-color:#F30B54"/>
	</linearGradient>
	<path class="st3" d="M215.12,272.82c-0.01,0.08-0.01,0.15-0.02,0.22c-1.22,13.43-12.37,23.99-26.11,23.99
		c-14.35,0-26.29-11.47-26.29-25.74c0-18.91-15.17-36.44-36.39-36.44c-16.48,0-30.46,10.47-35.27,27c-0.79,3.41-1.13,5.83-1.13,8.88
		v444.02c0,49.31,39.88,89.29,89.07,89.29s89.07-39.97,89.07-89.29l0.06-20.5c0.67-38.09,31.64-68.78,69.8-68.78
		s69.13,30.69,69.79,68.78l0.06,226.32c0,56.83,47.6,102.92,104.18,103.42c0-76.19,0-600.46,0-600.46S215.54,273.04,215.12,272.82z"
		/>
	<linearGradient id="SVGID_5_" gradientUnits="userSpaceOnUse" x1="89.9109" y1="672.88" x2="511.9609" y2="672.88">
		<stop  offset="0" style="stop-color:#A1115B"/>
		<stop  offset="1" style="stop-color:#F30B54"/>
	</linearGradient>
	<path class="st4" d="M431.49,489.31c-26.61-15.08-56.39-21.7-80.88-21.7c-51.68,0-43.14,15.56-99.3,15.56
		c-38.82,0-69.8-12.36-94.92-30.85c-42.93-31.6-66.48-82.54-66.48-130.55v178.45v214.53c0,49.31,39.88,89.29,89.07,89.29
		s89.07-39.97,89.07-89.29l0.06-20.5c0.67-38.09,31.64-68.78,69.8-68.78s69.13,30.69,69.79,68.78l0.06,226.32
		c0,56.83,47.6,102.92,104.18,103.42c0-42.91,0-227.99,0-381.46c0-5.79,0-11.53,0-17.22C510.64,559.14,474.58,513.74,431.49,489.31z
		"/>
</g>
</svg>
